<svg width="37" height="37" viewBox="0 0 37 37" fill="none" xmlns="http://www.w3.org/2000/svg">
<path opacity="0.4" d="M4.76782 14.4983H32.2464" stroke="#023492" stroke-width="1.5" stroke-linecap="round" stroke-linejoin="round"/>
<path opacity="0.4" d="M11.6519 26.5108H11.6661M25.3483 20.519H25.3626H25.3483ZM18.5072 20.519H18.5215H18.5072ZM11.6519 20.519H11.6661H11.6519ZM25.3483 26.5108H25.3626H25.3483ZM18.5072 26.5108H18.5215H18.5072Z" stroke="#023492" stroke-width="1.5" stroke-linecap="round" stroke-linejoin="round"/>
<path d="M24.7341 3.08325V8.15654" stroke="#023492" stroke-width="1.5" stroke-linecap="round" stroke-linejoin="round"/>
<path d="M12.2803 3.08325V8.15654" stroke="#023492" stroke-width="1.5" stroke-linecap="round" stroke-linejoin="round"/>
<path fill-rule="evenodd" clip-rule="evenodd" d="M25.034 5.51782H11.9802C7.45284 5.51782 4.625 8.03989 4.625 12.6758V26.6274C4.625 31.3362 7.45284 33.9166 11.9802 33.9166H25.0197C29.5614 33.9166 32.375 31.3799 32.375 26.744V12.6758C32.3892 8.03989 29.5757 5.51782 25.034 5.51782Z" stroke="#023492" stroke-width="1.5" stroke-linecap="round" stroke-linejoin="round"/>
</svg>
