<svg width="32" height="40" viewBox="0 0 32 40" fill="none" xmlns="http://www.w3.org/2000/svg">
<path d="M4.5 0C2.0325 0 0 2.0325 0 4.5V35.5C0 37.9675 2.0325 40 4.5 40H27.5C29.9675 40 32 37.9675 32 35.5V14.5C31.9999 14.1022 31.8419 13.7207 31.5605 13.4395L31.5449 13.4238L18.5605 0.439453C18.2793 0.158149 17.8978 7.65285e-05 17.5 0H4.5ZM4.5 3H16V11.5C16 13.9675 18.0325 16 20.5 16H29V35.5C29 36.3465 28.3465 37 27.5 37H4.5C3.6535 37 3 36.3465 3 35.5V4.5C3 3.6535 3.6535 3 4.5 3ZM19 5.12109L26.8789 13H20.5C19.6535 13 19 12.3465 19 11.5V5.12109Z" fill="#002566"/>
</svg>
