<svg width="50" height="44" viewBox="0 0 50 44" fill="none" xmlns="http://www.w3.org/2000/svg">
<path d="M44.2077 12L27.8438 3.52C27.0233 3.01664 26.0471 2.74677 25.0469 2.74677C24.0467 2.74677 23.0705 3.01664 22.25 3.52L5.06251 11.9488C4.49134 12.312 4.02628 12.7893 3.70556 13.3414C3.38483 13.8936 3.21759 14.5049 3.21759 15.125C3.21759 15.7451 3.38483 16.3564 3.70556 16.9086C4.02628 17.4607 4.49134 17.938 5.06251 18.3013L5.23439 18.3975L11.4998 21.23V34.375C11.4998 36.5338 14.4688 40.5 25 40.5C35.5313 40.5 38.4998 36.5338 38.4998 34.375V21.23L43.75 18.9338V34.375C43.75 34.7397 43.9146 35.0894 44.2077 35.3473C44.2576 35.3913 44.3136 35.4247 44.3721 35.4499C44.7511 35.6131 45.284 35.6711 45.5938 35.3985C45.8868 35.1407 46.0514 34.7909 46.0514 34.4263V15.1763C46.049 14.5566 45.8809 13.9462 45.5606 13.3944C45.2403 12.8426 44.7768 12.3649 44.2077 12ZM35.9375 34.1247C35.9375 34.289 35.8985 34.4489 35.8041 34.5835C35.2167 35.4216 32.5455 38.5 25 38.5C17.4546 38.5 14.7833 35.4216 14.1959 34.5835C14.1016 34.4489 14.0625 34.289 14.0625 34.1247V22.7563L22.1875 26.73C23.0145 27.232 23.9954 27.5008 25 27.5008C26.0047 27.5008 26.9855 27.232 27.8125 26.73L35.9375 22.7563V34.1247ZM43.2344 16.0463L26.0469 24.4613C25.7456 24.6495 25.3852 24.7507 25.0156 24.7507C24.6461 24.7507 24.2857 24.6495 23.9844 24.4613L6.79689 16.0463C6.63779 15.937 6.50909 15.7972 6.42057 15.6375C6.33206 15.4779 6.28605 15.3026 6.28605 15.125C6.28605 14.9474 6.33206 14.7721 6.42057 14.6125C6.50909 14.4528 6.63779 14.3131 6.79689 14.2038C6.79689 14.2038 23.9844 5.83 23.9844 5.78875C24.2914 5.60005 24.6568 5.49886 25.0313 5.49886C25.4057 5.49886 25.7712 5.60005 26.0781 5.78875L43.2656 14.2038C43.4247 14.3131 43.5534 14.4528 43.6419 14.6125C43.7305 14.7721 43.7765 14.9474 43.7765 15.125C43.7765 15.3026 43.7305 15.4779 43.6419 15.6375C43.5534 15.7972 43.4247 15.937 43.2656 16.0463H43.2344Z" fill="white"/>
</svg>
