<svg width="43" height="41" viewBox="0 0 43 41" fill="none" xmlns="http://www.w3.org/2000/svg">
<path d="M35.9118 19.8104C35.2134 19.8104 34.6725 20.3488 34.6725 21.0506V37.991H25.8845V31.0735C25.8845 30.4246 25.3437 29.8573 24.6899 29.8573H18.3358C17.6368 29.8573 17.0739 30.4245 17.0739 31.0735V37.991H8.30801V21.613C8.30801 20.9591 7.7677 20.416 7.06873 20.416C6.41544 20.416 5.87463 20.9591 5.87463 21.613V39.2312C5.87463 39.885 6.41544 40.4282 7.06873 40.4282H18.3358C18.9891 40.4282 19.5299 39.885 19.5299 39.2312V32.3137H23.4506V39.2312C23.4506 39.885 23.9914 40.4282 24.6899 40.4282H35.9118C36.5651 40.4282 37.1059 39.885 37.1059 39.2312V21.0506C37.1059 20.3488 36.5651 19.8104 35.9118 19.8104Z" fill="white"/>
<path d="M42.6491 20.7766L32.8698 10.9555V4.25919C32.8698 3.56212 32.3064 3.02378 31.6079 3.02378C30.9541 3.02378 30.4134 3.5622 30.4134 4.25919V8.49913L22.3465 0.384612C22.0993 0.134621 21.8057 0 21.5129 0C21.1749 0 20.8817 0.139399 20.6341 0.384612L0.376665 20.642C-0.109336 21.1275 -0.141516 21.9062 0.376665 22.3533C0.827113 22.8725 1.60301 22.8388 2.08901 22.3533L21.5129 2.97565L40.8916 22.536C41.0934 22.7379 41.3872 22.8533 41.7703 22.8533C42.1083 22.8533 42.401 22.7379 42.6491 22.536C43.1 22.0841 43.1336 21.2669 42.6491 20.7766Z" fill="white"/>
</svg>
