<svg width="51" height="51" viewBox="0 0 51 51" fill="none" xmlns="http://www.w3.org/2000/svg">
<path d="M45.3333 0H5.66667C2.53583 0 0 2.53583 0 5.66667V45.3333C0 48.4642 2.53583 51 5.66667 51H45.3333C48.4642 51 51 48.4642 51 45.3333V5.66667C51 2.53583 48.4642 0 45.3333 0ZM42.2365 35.938L37.3207 36.006C37.3207 36.006 36.261 36.2128 34.8727 35.2552C33.0338 33.9915 31.2998 30.7048 29.9483 31.1327C28.577 31.569 28.6195 34.527 28.6195 34.527C28.6195 34.527 28.6308 35.0483 28.3163 35.3883C27.9763 35.7538 27.3105 35.717 27.3105 35.717H25.109C25.109 35.717 20.2527 36.1193 15.9715 31.6568C11.3078 26.792 7.18817 17.1898 7.18817 17.1898C7.18817 17.1898 6.94733 16.5835 7.20517 16.2747C7.497 15.9318 8.28467 15.9233 8.28467 15.9233L13.5462 15.8978C13.5462 15.8978 14.042 15.9857 14.399 16.2463C14.6908 16.4617 14.858 16.8668 14.858 16.8668C14.858 16.8668 15.708 19.023 16.8357 20.9752C19.0343 24.7803 20.0572 25.6133 20.8023 25.2053C21.8903 24.6103 21.5645 19.8277 21.5645 19.8277C21.5645 19.8277 21.5843 18.0908 21.0177 17.3173C20.5757 16.7138 19.7455 16.5353 19.38 16.49C19.0825 16.4503 19.567 15.7618 20.1988 15.4502C21.1452 14.9883 22.8197 14.96 24.7945 14.9798C26.333 14.9968 26.7778 15.0903 27.3785 15.2377C29.1947 15.6768 28.577 17.3712 28.577 21.437C28.577 22.7403 28.3418 24.5707 29.2797 25.1742C29.6848 25.4348 30.6708 25.2138 33.133 21.0205C34.3032 19.0315 35.1787 16.694 35.1787 16.694C35.1787 16.694 35.3713 16.2775 35.6688 16.099C35.9748 15.9148 36.3857 15.9715 36.3857 15.9715L41.9248 15.9375C41.9248 15.9375 43.588 15.7363 43.86 16.4928C44.1433 17.2833 43.2395 19.1278 40.9757 22.1453C37.2612 27.1037 36.8475 26.6418 39.933 29.5092C42.8797 32.249 43.4888 33.5807 43.5908 33.7478C44.8092 35.7765 42.2365 35.938 42.2365 35.938Z" fill="#001D53"/>
</svg>
