<svg width="51" height="51" viewBox="0 0 51 51" fill="none" xmlns="http://www.w3.org/2000/svg">
<path d="M14.1667 0C6.34383 0 0 6.34383 0 14.1667V36.8333C0 44.6562 6.34383 51 14.1667 51H36.8333C44.6562 51 51 44.6562 51 36.8333V14.1667C51 6.34383 44.6562 0 36.8333 0H14.1667ZM42.5 5.66667C44.064 5.66667 45.3333 6.936 45.3333 8.5C45.3333 10.064 44.064 11.3333 42.5 11.3333C40.936 11.3333 39.6667 10.064 39.6667 8.5C39.6667 6.936 40.936 5.66667 42.5 5.66667ZM25.5 11.3333C33.3228 11.3333 39.6667 17.6772 39.6667 25.5C39.6667 33.3228 33.3228 39.6667 25.5 39.6667C17.6772 39.6667 11.3333 33.3228 11.3333 25.5C11.3333 17.6772 17.6772 11.3333 25.5 11.3333ZM25.5 17C23.2457 17 21.0837 17.8955 19.4896 19.4896C17.8955 21.0837 17 23.2457 17 25.5C17 27.7543 17.8955 29.9163 19.4896 31.5104C21.0837 33.1045 23.2457 34 25.5 34C27.7543 34 29.9163 33.1045 31.5104 31.5104C33.1045 29.9163 34 27.7543 34 25.5C34 23.2457 33.1045 21.0837 31.5104 19.4896C29.9163 17.8955 27.7543 17 25.5 17Z" fill="#001D53"/>
</svg>
