<svg width="51" height="51" viewBox="0 0 51 51" fill="none" xmlns="http://www.w3.org/2000/svg">
<path d="M49.7996 1.20091C49.2109 0.607512 48.4536 0.210234 47.6309 0.0632702C46.8082 -0.0836937 45.9603 0.0268123 45.2027 0.379714L2.39647 20.0539C1.64737 20.3943 1.01844 20.9531 0.591947 21.657C0.165452 22.3609 -0.0387446 23.1771 0.00606809 23.999C0.0508807 24.8209 0.342616 25.6102 0.843112 26.2635C1.34361 26.9168 2.02956 27.4038 2.81123 27.6607L15.9365 31.9828L22.6244 25.3009C23.036 24.9328 23.5727 24.7364 24.1245 24.7518C24.6763 24.7673 25.2013 24.9935 25.5916 25.3839C25.9819 25.7744 26.208 26.2996 26.2234 26.8516C26.2389 27.4036 26.0425 27.9405 25.6746 28.3523L19.0299 35.0774L23.3503 48.2079C23.6071 48.991 24.0958 49.6774 24.7517 50.1761C25.4076 50.6748 26.1996 50.9621 27.0226 51H27.2472C28.0282 51.0022 28.7932 50.7792 29.4507 50.3576C30.1081 49.936 30.6301 49.3337 30.9541 48.6228L50.6204 5.79961C50.9732 5.04173 51.0837 4.19343 50.9368 3.37043C50.7899 2.54743 50.3927 1.78981 49.7996 1.20091Z" fill="#001D53"/>
</svg>
