<svg width="48" height="48" viewBox="0 0 48 48" fill="none" xmlns="http://www.w3.org/2000/svg">
<g clip-path="url(#clip0_1_525)">
<path d="M1.77572 5.76913H6.10891C6.55676 5.76913 6.95 6.06689 7.07144 6.49796L13.9758 31.0055C14.1829 31.775 14.8932 32.3077 15.6923 32.3077H37.9777C38.688 32.3077 39.3095 31.8933 39.6054 31.2423L47.2023 13.852C47.28 13.6742 47.3201 13.4822 47.3201 13.2881C47.3201 13.0165 47.252 12.7395 47.0544 12.5532C46.729 12.2463 46.2933 12.073 45.8403 12.073H21.7527C20.776 12.073 19.8461 12.4079 19.8461 13.3846C19.8461 14.3612 20.628 14.6478 21.6047 14.6478H41.9795C42.6998 14.6478 43.1839 15.3864 42.8964 16.0469L37.1968 29.1406C37.0379 29.5055 36.6778 29.7415 36.2799 29.7415H17.3676C16.9221 29.7415 16.5303 29.4468 16.4068 29.0188L9.23074 4.15379C9.0236 3.38427 8.99708 2.8396 8.198 2.8396H1.7757C0.799048 2.8396 -3.05176e-05 3.63868 -3.05176e-05 4.61533C-3.05176e-05 5.59198 0.799069 5.76913 1.77572 5.76913Z" fill="white"/>
<path d="M18.9231 41.5384C20.7047 41.5384 22.1538 40.0893 22.1538 38.3076C22.1538 36.526 20.7047 35.0769 18.9231 35.0769C17.1414 35.0769 15.6923 36.5259 15.6923 38.3076C15.6923 40.0893 17.1414 41.5384 18.9231 41.5384Z" fill="white"/>
<path d="M34.6154 41.5384C36.397 41.5384 37.8461 40.0893 37.8461 38.3076C37.8461 36.526 36.397 35.0769 34.6154 35.0769C32.8337 35.0769 31.3846 36.5259 31.3846 38.3076C31.3846 40.0893 32.8337 41.5384 34.6154 41.5384Z" fill="white"/>
</g>
<defs>
<clipPath id="clip0_1_525">
<rect width="48" height="48" fill="white"/>
</clipPath>
</defs>
</svg>
