<svg width="246" height="213" viewBox="0 0 246 213" fill="none" xmlns="http://www.w3.org/2000/svg">
<g filter="url(#filter0_di_95_481)">
<path fill-rule="evenodd" clip-rule="evenodd" d="M18.2497 7H179.514C182.828 7 185.514 9.68629 185.514 13V54.0132L185.512 54.0147V68.5L185.514 68.4989C185.492 87.2286 183.141 105.868 178.527 123.99L178.512 124L176.332 131.995C176.014 133.076 175.688 134.155 175.354 135.231L172.975 142.894L171.012 149L171.098 148.94L158.415 189.798C156.986 194.4 152.728 197.536 147.909 197.536H48.9547C44.2131 197.536 40.0051 194.498 38.5133 189.997L26.2855 153.105C15.1897 119.629 10.0633 84.463 11.1404 49.2121L12.2525 12.8168C12.3515 9.5759 15.0073 7 18.2497 7ZM171.098 148.94L204.355 125.727C206.955 123.913 209.39 121.873 211.632 119.631L219.818 111.444C229.067 102.196 234.262 89.6523 234.262 76.5733V64.7234C234.262 57.9231 231.305 51.459 226.16 47.0123C218.001 39.9601 206.08 39.3947 197.29 45.643L185.514 54.0132V68.228C185.514 68.3183 185.514 68.4086 185.514 68.4989L206.676 57.0395C209.991 55.2447 214.091 55.8393 216.759 58.5017C218.361 60.1012 219.262 62.2725 219.262 64.5368V76.9958C219.262 86.9046 215.239 96.3889 208.115 103.276L206.953 104.399C205.163 106.129 203.217 107.69 201.139 109.062L178.527 123.99C177.845 126.67 177.113 129.339 176.332 131.995L175.512 135L172.975 142.894L171.098 148.94Z" fill="#348BB1"/>
</g>
<defs>
<filter id="filter0_di_95_481" x="0" y="0" width="245.262" height="212.536" filterUnits="userSpaceOnUse" color-interpolation-filters="sRGB">
<feFlood flood-opacity="0" result="BackgroundImageFix"/>
<feColorMatrix in="SourceAlpha" type="matrix" values="0 0 0 0 0 0 0 0 0 0 0 0 0 0 0 0 0 0 127 0" result="hardAlpha"/>
<feOffset dy="4"/>
<feGaussianBlur stdDeviation="5.5"/>
<feComposite in2="hardAlpha" operator="out"/>
<feColorMatrix type="matrix" values="0 0 0 0 0.6375 0 0 0 0 0.6375 0 0 0 0 0.6375 0 0 0 0.85 0"/>
<feBlend mode="normal" in2="BackgroundImageFix" result="effect1_dropShadow_95_481"/>
<feBlend mode="normal" in="SourceGraphic" in2="effect1_dropShadow_95_481" result="shape"/>
<feColorMatrix in="SourceAlpha" type="matrix" values="0 0 0 0 0 0 0 0 0 0 0 0 0 0 0 0 0 0 127 0" result="hardAlpha"/>
<feOffset dx="-3" dy="4"/>
<feGaussianBlur stdDeviation="5"/>
<feComposite in2="hardAlpha" operator="arithmetic" k2="-1" k3="1"/>
<feColorMatrix type="matrix" values="0 0 0 0 1 0 0 0 0 1 0 0 0 0 1 0 0 0 0.25 0"/>
<feBlend mode="normal" in2="shape" result="effect2_innerShadow_95_481"/>
</filter>
</defs>
</svg>
