<svg width="46" height="47" viewBox="0 0 46 47" fill="none" xmlns="http://www.w3.org/2000/svg">
<path d="M18.5484 18.8841C19.7771 18.8841 20.7743 17.9094 20.7743 16.7052C20.7743 15.5024 19.7771 14.5263 18.5484 14.5263C17.3198 14.5263 16.3226 15.5024 16.3226 16.7052C16.3226 17.9093 17.3198 18.8841 18.5484 18.8841ZM27.4516 18.8841C28.6803 18.8841 29.6774 17.9094 29.6774 16.7052C29.6774 15.5024 28.6802 14.5263 27.4516 14.5263C26.223 14.5263 25.2259 15.5024 25.2259 16.7052C25.2258 17.9093 26.223 18.8841 27.4516 18.8841ZM14.2986 33.0282C15.453 33.2113 18.075 33.4102 19.2903 33.4102C29.9446 33.4102 37.0968 25.6489 37.0968 16.5235C37.0968 7.39815 28.1594 0 19.2903 0C8.62132 0 0 7.39822 0 16.5235C0 21.8096 2.05812 26.2982 5.9355 29.5303V37.7681L14.2986 33.0282ZM2.96775 16.7051C2.96775 9.08321 10.0206 2.90525 19.2903 2.90525C26.6696 2.90525 34.129 9.08321 34.129 16.7051C34.129 24.327 28.3048 30.5051 19.2903 30.5051C17.9653 30.5051 15.2007 30.3569 13.9677 30.1055L8.90325 33.4102V28.2623C5.28406 25.3875 2.96775 21.5467 2.96775 16.7051ZM39.9888 13.2741C40.017 13.691 40.0645 14.1035 40.0645 14.5263C40.0645 15.4501 39.974 16.3551 39.8404 17.2485C41.8378 19.5378 43.0323 22.3573 43.0323 25.4209C43.0323 30.2625 40.0765 34.5158 35.6129 36.9779V42.1261L30.5484 38.8213C29.3154 39.0726 28.0348 39.2208 26.7097 39.2208C22.8665 39.2208 20.8247 38.0907 18.035 36.211C17.2263 36.2749 16.4087 36.3156 15.5807 36.3156C14.9901 36.3156 14.4114 36.2735 13.8297 36.2415C17.3613 39.6232 20.9953 41.7629 26.7097 41.7629C27.925 41.7629 29.1106 41.6554 30.2636 41.4709L38.5806 46.4839V38.2446C43.0901 35.2202 46 30.5254 46 25.2378C46 20.5256 43.6851 16.2853 39.9888 13.2741ZM9.64519 18.8841C10.8738 18.8841 11.871 17.9094 11.871 16.7052C11.871 15.5024 10.8738 14.5263 9.64519 14.5263C8.4165 14.5263 7.41938 15.5024 7.41938 16.7052C7.41938 17.9093 8.4165 18.8841 9.64519 18.8841Z" fill="white"/>
</svg>
