<svg width="39" height="36" viewBox="0 0 39 36" fill="none" xmlns="http://www.w3.org/2000/svg">
<path d="M34.125 4.8H26.8125V2.4C26.8125 1.07401 25.7217 0 24.375 0H14.625C13.2783 0 12.1875 1.0752 12.1875 2.4V4.8H4.875C2.18279 4.8 0 6.94921 0 9.6V31.2C0 33.8508 2.18279 36 4.875 36H34.125C36.8172 36 39 33.8508 39 31.2V9.6C39 6.94921 36.8172 4.8 34.125 4.8ZM14.625 3.6C14.625 2.9376 15.171 2.4 15.8438 2.4H23.1563C23.829 2.4 24.375 2.9376 24.375 3.6V4.8H14.625V3.6ZM36.5625 31.2C36.5625 32.5248 35.4717 33.6 34.125 33.6H4.875C3.52829 33.6 2.4375 32.5248 2.4375 31.2V18H14.7969C14.6957 18.3864 14.625 18.7836 14.625 19.2C14.625 21.8508 16.8078 24 19.5 24C22.1922 24 24.375 21.8508 24.375 19.2C24.375 18.7836 24.3043 18.3852 24.2032 18H36.5625V31.2ZM17.0625 19.2C17.0625 18.7608 17.1917 18.354 17.4001 18H21.5987C21.8083 18.354 21.9375 18.7608 21.9375 19.2C21.9375 20.526 20.8455 21.6 19.5 21.6C18.1533 21.6 17.0625 20.526 17.0625 19.2ZM36.5625 15.6H2.4375V9.6C2.4375 8.27401 3.52829 7.2 4.875 7.2H34.125C35.4717 7.2 36.5625 8.27401 36.5625 9.6V15.6Z" fill="white"/>
</svg>
