<svg width="70" height="70" viewBox="0 0 70 70" fill="none" xmlns="http://www.w3.org/2000/svg">
<g filter="url(#filter0_bii_91_394)">
<rect width="70" height="70" rx="35" fill="white" fill-opacity="0.1"/>
</g>
<path d="M14 34.5C12.6193 34.5 11.5 35.6193 11.5 37C11.5 38.3807 12.6193 39.5 14 39.5V34.5ZM56.7678 38.7678C57.7441 37.7915 57.7441 36.2085 56.7678 35.2322L40.8579 19.3223C39.8816 18.346 38.2986 18.346 37.3223 19.3223C36.346 20.2986 36.346 21.8816 37.3223 22.8579L51.4645 37L37.3223 51.1421C36.346 52.1184 36.346 53.7014 37.3223 54.6777C38.2986 55.654 39.8816 55.654 40.8579 54.6777L56.7678 38.7678ZM14 39.5H55V34.5H14V39.5Z" fill="#3099C8"/>
<defs>
<filter id="filter0_bii_91_394" x="-83" y="-83" width="236" height="236" filterUnits="userSpaceOnUse" color-interpolation-filters="sRGB">
<feFlood flood-opacity="0" result="BackgroundImageFix"/>
<feGaussianBlur in="BackgroundImage" stdDeviation="41.5"/>
<feComposite in2="SourceAlpha" operator="in" result="effect1_backgroundBlur_91_394"/>
<feBlend mode="normal" in="SourceGraphic" in2="effect1_backgroundBlur_91_394" result="shape"/>
<feColorMatrix in="SourceAlpha" type="matrix" values="0 0 0 0 0 0 0 0 0 0 0 0 0 0 0 0 0 0 127 0" result="hardAlpha"/>
<feOffset dx="-41.5" dy="41.5"/>
<feGaussianBlur stdDeviation="20.75"/>
<feComposite in2="hardAlpha" operator="arithmetic" k2="-1" k3="1"/>
<feColorMatrix type="matrix" values="0 0 0 0 1 0 0 0 0 1 0 0 0 0 1 0 0 0 0.1 0"/>
<feBlend mode="normal" in2="shape" result="effect2_innerShadow_91_394"/>
<feColorMatrix in="SourceAlpha" type="matrix" values="0 0 0 0 0 0 0 0 0 0 0 0 0 0 0 0 0 0 127 0" result="hardAlpha"/>
<feOffset dx="41.5" dy="-41.5"/>
<feGaussianBlur stdDeviation="20.75"/>
<feComposite in2="hardAlpha" operator="arithmetic" k2="-1" k3="1"/>
<feColorMatrix type="matrix" values="0 0 0 0 0.76 0 0 0 0 0.76 0 0 0 0 0.76 0 0 0 0.1 0"/>
<feBlend mode="normal" in2="effect2_innerShadow_91_394" result="effect3_innerShadow_91_394"/>
</filter>
</defs>
</svg>
