<svg width="699" height="450" viewBox="0 0 699 450" fill="none" xmlns="http://www.w3.org/2000/svg">
<g filter="url(#filter0_i_82_268)">
<path fill-rule="evenodd" clip-rule="evenodd" d="M0.305212 295.402C-1.12377 243.012 86.5168 210.634 121.506 162.51C154.289 117.42 139.682 51.5908 197.334 24.4082C254.833 -2.70279 317.955 41.5834 382.529 39.4378C461.019 36.8299 550.719 -21.5663 612.271 10.6212C672.118 41.9168 631.085 119.968 643.902 176.118C657.327 234.929 723.087 289.232 689.044 346.951C655.018 404.642 563.305 440.21 483.293 448.43C412.603 455.692 370.576 395.436 302.391 386.672C244.951 379.29 181.257 418.848 128.059 402.775C66.7559 384.253 1.72221 347.353 0.305212 295.402Z" fill="url(#paint0_linear_82_268)"/>
</g>
<defs>
<filter id="filter0_i_82_268" x="0.288086" y="0.967224" width="715.423" height="456.068" filterUnits="userSpaceOnUse" color-interpolation-filters="sRGB">
<feFlood flood-opacity="0" result="BackgroundImageFix"/>
<feBlend mode="normal" in="SourceGraphic" in2="BackgroundImageFix" result="shape"/>
<feColorMatrix in="SourceAlpha" type="matrix" values="0 0 0 0 0 0 0 0 0 0 0 0 0 0 0 0 0 0 127 0" result="hardAlpha"/>
<feOffset dx="17" dy="8"/>
<feGaussianBlur stdDeviation="10"/>
<feComposite in2="hardAlpha" operator="arithmetic" k2="-1" k3="1"/>
<feColorMatrix type="matrix" values="0 0 0 0 1 0 0 0 0 1 0 0 0 0 1 0 0 0 0.66 0"/>
<feBlend mode="normal" in2="shape" result="effect1_innerShadow_82_268"/>
</filter>
<linearGradient id="paint0_linear_82_268" x1="82.0235" y1="596.611" x2="397.257" y2="-87.5028" gradientUnits="userSpaceOnUse">
<stop offset="0.0364583" stop-color="#023492"/>
<stop offset="1" stop-color="#4AD9FE"/>
</linearGradient>
</defs>
</svg>
